# xmcd
#
# Track frame offsets:
#	182
#	4482
#	15992
#	24680
#	36365
#	48047
#	57110
#	70175
#	80710
#	86927
#	99145
#	112785
#	126272
#	140335
#	149117
#	156765
#	167775
#	172272
#
# Disc length: 2445 seconds
#
# Revision: 4
# Processed by: cddbd v1.5PL3 Copyright (c) Steve Scherf et al.
# Submitted via: dBpowerAMP V4.0
#
DISCID=f4098b12
DTITLE=Mano Negra - Puta's Fever
DYEAR=1989
DGENRE=Rock
TTITLE0=Mano Negra
TTITLE1=Rock'n'roll band
TTITLE2=King Kong five
TTITLE3=Soledad
TTITLE4=Sidi h' bibi
TTITLE5=The rebel spell
TTITLE6=Peligro
TTITLE7=Pas assez de toi
TTITLE8=Magic dice
TTITLE9=Mad house
TTITLE10=Guayaquil City
TTITLE11=Voodoo
TTITLE12=Patchanka
TTITLE13=La rançon du succès
TTITLE14=The devil's call
TTITLE15=Roger Cageot
TTITLE16=El sur
TTITLE17=Patchuko hop
EXTD=
EXTT0=
EXTT1=
EXTT2=
EXTT3=
EXTT4=
EXTT5=
EXTT6=
EXTT7=
EXTT8=
EXTT9=
EXTT10=
EXTT11=
EXTT12=
EXTT13=
EXTT14=
EXTT15=
EXTT16=
EXTT17=
PLAYORDER=
